# xmcd CD database file
#
# Track frame offsets:
#	150
#	23805
#	48261
#	73211
#	80671
#	90946
#	105148
#	109280
#	119911
#	123657
#	137106
#	157155
#	183600
#	187714
#	221811
#
# Disc length: 3093 seconds
#
# Revision: 0
# Processed by: cddbd v1.5.2PL0 Copyright (c) Steve Scherf et al.
# Submitted via: CDex 1.51
#
DISCID=d90c130f
DTITLE=K:E:B - Gunzgen Süd
DYEAR=2008
DGENRE=Jazz
TTITLE0=Balkon
TTITLE1=Snow in March
TTITLE2=Tamzara
TTITLE3=Grosny
TTITLE4=Bluernette
TTITLE5=Totentanzbeinschwinget
TTITLE6=Gunzgen Süd 1
TTITLE7=Leugid vo Bärg und Tal
TTITLE8=Gunzgen Süd 2
TTITLE9=Morgens um Vier
TTITLE10=Pablo's Vater
TTITLE11=S'Vreneli ab em Guggisberg
TTITLE12=Gunzgen Süd 3
TTITLE13=Seeking the Spirits
TTITLE14=Elle est loin
EXTD=YEAR: 2008
EXTT0=
EXTT1=
EXTT2=
EXTT3=
EXTT4=
EXTT5=
EXTT6=
EXTT7=
EXTT8=
EXTT9=
EXTT10=
EXTT11=
EXTT12=
EXTT13=
EXTT14=
PLAYORDER=
